<svg xmlns="http://www.w3.org/2000/svg" viewBox="0 0 281 281"><defs><style>.cls-1{fill:#ccffd6;}</style></defs><title>logo-square</title><g id="Layer_2" data-name="Layer 2"><g id="Layer_1-2" data-name="Layer 1"><circle class="cls-1" cx="140.5" cy="140.5" r="140.5"/><path d="M212.15,155.34q11,13.18,11,34.07,0,26.06-16.46,40.09t-42,14h-79A5.88,5.88,0,0,1,80,237.81v-189a5.88,5.88,0,0,1,5.73-5.73h77q22.91,0,36.66,13.17t13.74,35.5a54.37,54.37,0,0,1-8,29.06,41,41,0,0,1-22.34,17.9Q201.12,142.17,212.15,155.34ZM190.68,64.56q-10.46-10-29.35-10H92V135h69.29q17.75-.28,28.78-11.59t11-31.93Q201.13,74.59,190.68,64.56ZM198,221.34q13.17-10.74,13.17-31.93T198,157.49q-13.17-10.74-34.65-10.74H92v85.33h71.3Q184.81,232.08,198,221.34Z"/></g></g></svg>